<?xml version="1.0" encoding="UTF-8" standalone="no"?>
<!DOCTYPE svg PUBLIC "-//W3C//DTD SVG 1.1//EN" "http://www.w3.org/Graphics/SVG/1.1/DTD/svg11.dtd">
<svg width="100%" height="100%" viewBox="0 0 2238 358" version="1.1" xmlns="http://www.w3.org/2000/svg" xmlns:xlink="http://www.w3.org/1999/xlink" xml:space="preserve" xmlns:serif="http://www.serif.com/" style="fill-rule:evenodd;clip-rule:evenodd;stroke-linejoin:round;stroke-miterlimit:2;">
    <g transform="matrix(1,0,0,1,-1019.31,-2168.38)">
        <g transform="matrix(384,0,0,384,1734.56,2449.42)">
            <path d="M0.031,-0.155L0.118,-0.168C0.123,-0.134 0.136,-0.107 0.158,-0.088C0.181,-0.07 0.212,-0.061 0.252,-0.061C0.292,-0.061 0.322,-0.069 0.342,-0.085C0.361,-0.102 0.371,-0.121 0.371,-0.143C0.371,-0.163 0.362,-0.179 0.345,-0.19C0.333,-0.198 0.303,-0.208 0.255,-0.22C0.191,-0.236 0.146,-0.25 0.121,-0.262C0.096,-0.274 0.078,-0.29 0.065,-0.311C0.052,-0.332 0.045,-0.355 0.045,-0.381C0.045,-0.404 0.051,-0.425 0.061,-0.445C0.072,-0.465 0.086,-0.481 0.104,-0.494C0.118,-0.504 0.137,-0.513 0.16,-0.52C0.184,-0.527 0.209,-0.53 0.236,-0.53C0.277,-0.53 0.313,-0.524 0.344,-0.513C0.374,-0.501 0.397,-0.485 0.412,-0.465C0.426,-0.445 0.436,-0.418 0.442,-0.385L0.356,-0.373C0.352,-0.4 0.341,-0.421 0.322,-0.436C0.303,-0.451 0.277,-0.458 0.243,-0.458C0.202,-0.458 0.174,-0.451 0.156,-0.438C0.139,-0.425 0.13,-0.409 0.13,-0.391C0.13,-0.38 0.134,-0.369 0.141,-0.36C0.148,-0.351 0.16,-0.343 0.175,-0.337C0.184,-0.334 0.209,-0.326 0.252,-0.314C0.315,-0.298 0.358,-0.284 0.383,-0.274C0.407,-0.263 0.426,-0.248 0.44,-0.228C0.454,-0.207 0.461,-0.182 0.461,-0.152C0.461,-0.123 0.453,-0.095 0.436,-0.07C0.419,-0.044 0.394,-0.024 0.362,-0.01C0.33,0.005 0.293,0.012 0.252,0.012C0.185,0.012 0.134,-0.002 0.098,-0.03C0.063,-0.058 0.041,-0.1 0.031,-0.155Z" style="fill:rgb(239,39,154);fill-rule:nonzero;"/>
        </g>
        <g transform="matrix(384,0,0,384,1926.56,2449.42)">
            <path d="M0.162,-0L0.003,-0.519L0.094,-0.519L0.176,-0.219L0.207,-0.108C0.208,-0.113 0.217,-0.149 0.234,-0.215L0.316,-0.519L0.407,-0.519L0.484,-0.218L0.51,-0.119L0.54,-0.219L0.629,-0.519L0.714,-0.519L0.552,-0L0.461,-0L0.378,-0.311L0.358,-0.399L0.253,-0L0.162,-0Z" style="fill:rgb(239,39,154);fill-rule:nonzero;"/>
        </g>
        <g transform="matrix(384,0,0,384,2203.88,2449.42)">
            <path d="M0.404,-0.064C0.372,-0.036 0.34,-0.017 0.31,-0.005C0.28,0.006 0.248,0.012 0.213,0.012C0.156,0.012 0.113,-0.002 0.082,-0.03C0.051,-0.058 0.036,-0.093 0.036,-0.137C0.036,-0.162 0.042,-0.185 0.053,-0.206C0.065,-0.227 0.08,-0.244 0.099,-0.257C0.118,-0.27 0.139,-0.279 0.162,-0.286C0.179,-0.29 0.205,-0.295 0.24,-0.299C0.311,-0.307 0.363,-0.317 0.397,-0.329C0.397,-0.341 0.397,-0.349 0.397,-0.352C0.397,-0.388 0.389,-0.413 0.373,-0.428C0.35,-0.448 0.317,-0.458 0.272,-0.458C0.231,-0.458 0.201,-0.45 0.181,-0.436C0.161,-0.421 0.147,-0.396 0.137,-0.359L0.051,-0.371C0.059,-0.407 0.072,-0.437 0.09,-0.46C0.108,-0.482 0.134,-0.5 0.167,-0.512C0.201,-0.524 0.241,-0.53 0.285,-0.53C0.329,-0.53 0.365,-0.525 0.393,-0.515C0.421,-0.504 0.441,-0.491 0.454,-0.475C0.467,-0.46 0.476,-0.44 0.481,-0.416C0.484,-0.401 0.486,-0.374 0.486,-0.334L0.486,-0.217C0.486,-0.136 0.488,-0.084 0.491,-0.062C0.495,-0.041 0.503,-0.02 0.514,-0L0.422,-0C0.413,-0.018 0.407,-0.04 0.404,-0.064ZM0.397,-0.26C0.365,-0.247 0.317,-0.236 0.253,-0.227C0.217,-0.222 0.192,-0.216 0.177,-0.209C0.162,-0.203 0.15,-0.193 0.142,-0.181C0.134,-0.168 0.13,-0.154 0.13,-0.139C0.13,-0.116 0.139,-0.096 0.156,-0.081C0.174,-0.065 0.2,-0.057 0.234,-0.057C0.268,-0.057 0.298,-0.065 0.325,-0.079C0.351,-0.094 0.37,-0.114 0.383,-0.14C0.392,-0.16 0.397,-0.189 0.397,-0.228L0.397,-0.26Z" style="fill:rgb(239,39,154);fill-rule:nonzero;"/>
        </g>
        <g transform="matrix(384,0,0,384,2417.44,2449.42)">
            <path d="M0.066,0.199L0.066,-0.519L0.146,-0.519L0.146,-0.451C0.165,-0.478 0.186,-0.497 0.21,-0.51C0.234,-0.524 0.263,-0.53 0.296,-0.53C0.341,-0.53 0.38,-0.519 0.414,-0.496C0.447,-0.473 0.473,-0.441 0.49,-0.4C0.507,-0.358 0.516,-0.313 0.516,-0.263C0.516,-0.21 0.507,-0.162 0.488,-0.12C0.469,-0.077 0.441,-0.045 0.405,-0.022C0.368,0 0.33,0.012 0.29,0.012C0.261,0.012 0.234,0.006 0.211,-0.007C0.188,-0.019 0.169,-0.035 0.154,-0.054L0.154,0.199L0.066,0.199ZM0.146,-0.256C0.146,-0.19 0.159,-0.14 0.186,-0.108C0.213,-0.076 0.246,-0.061 0.284,-0.061C0.323,-0.061 0.357,-0.077 0.385,-0.11C0.412,-0.143 0.426,-0.194 0.426,-0.264C0.426,-0.33 0.413,-0.379 0.385,-0.412C0.358,-0.445 0.326,-0.461 0.288,-0.461C0.251,-0.461 0.218,-0.444 0.189,-0.409C0.16,-0.374 0.146,-0.323 0.146,-0.256Z" style="fill:rgb(239,39,154);fill-rule:nonzero;"/>
        </g>
        <g transform="matrix(384,0,0,384,2631,2449.42)">
            <path d="M0.174,-0.36L0.05,-0.383C0.064,-0.433 0.088,-0.47 0.122,-0.494C0.156,-0.518 0.207,-0.53 0.274,-0.53C0.336,-0.53 0.381,-0.523 0.411,-0.509C0.441,-0.494 0.462,-0.476 0.474,-0.453C0.487,-0.431 0.493,-0.39 0.493,-0.331L0.491,-0.17C0.491,-0.125 0.493,-0.091 0.498,-0.07C0.502,-0.048 0.51,-0.025 0.522,-0L0.387,-0C0.383,-0.009 0.379,-0.023 0.374,-0.041C0.371,-0.049 0.37,-0.054 0.369,-0.057C0.345,-0.034 0.32,-0.017 0.293,-0.005C0.267,0.006 0.238,0.012 0.208,0.012C0.155,0.012 0.113,-0.003 0.082,-0.032C0.051,-0.061 0.036,-0.097 0.036,-0.142C0.036,-0.171 0.043,-0.197 0.057,-0.22C0.071,-0.243 0.09,-0.26 0.115,-0.273C0.141,-0.285 0.177,-0.296 0.225,-0.305C0.289,-0.317 0.333,-0.328 0.358,-0.338L0.358,-0.352C0.358,-0.378 0.351,-0.397 0.338,-0.408C0.325,-0.42 0.301,-0.425 0.265,-0.425C0.24,-0.425 0.221,-0.42 0.208,-0.411C0.194,-0.401 0.183,-0.384 0.174,-0.36ZM0.358,-0.249C0.34,-0.243 0.313,-0.236 0.274,-0.228C0.236,-0.22 0.211,-0.212 0.2,-0.204C0.182,-0.191 0.173,-0.175 0.173,-0.156C0.173,-0.137 0.18,-0.12 0.194,-0.106C0.209,-0.092 0.227,-0.085 0.249,-0.085C0.274,-0.085 0.297,-0.093 0.32,-0.109C0.336,-0.122 0.347,-0.137 0.353,-0.155C0.356,-0.167 0.358,-0.189 0.358,-0.222L0.358,-0.249Z" style="fill-rule:nonzero;"/>
        </g>
        <g transform="matrix(384,0,0,384,2844.56,2449.42)">
            <path d="M0.006,-0L0.193,-0.267L0.014,-0.519L0.181,-0.519L0.273,-0.376L0.37,-0.519L0.531,-0.519L0.355,-0.273L0.547,-0L0.378,-0L0.273,-0.161L0.167,-0L0.006,-0Z" style="fill-rule:nonzero;"/>
        </g>
        <g transform="matrix(384,0,0,384,3058.13,2449.42)">
            <path d="M0.372,-0.165L0.509,-0.142C0.491,-0.092 0.463,-0.054 0.426,-0.028C0.388,-0.001 0.34,0.012 0.283,0.012C0.193,0.012 0.126,-0.018 0.083,-0.077C0.049,-0.124 0.032,-0.183 0.032,-0.255C0.032,-0.341 0.054,-0.409 0.099,-0.457C0.144,-0.506 0.201,-0.53 0.27,-0.53C0.347,-0.53 0.408,-0.505 0.452,-0.454C0.497,-0.403 0.518,-0.325 0.516,-0.22L0.172,-0.22C0.173,-0.179 0.184,-0.147 0.206,-0.125C0.227,-0.102 0.253,-0.091 0.285,-0.091C0.306,-0.091 0.324,-0.097 0.339,-0.108C0.354,-0.12 0.365,-0.139 0.372,-0.165ZM0.38,-0.304C0.379,-0.343 0.369,-0.374 0.349,-0.394C0.33,-0.415 0.306,-0.425 0.278,-0.425C0.248,-0.425 0.223,-0.414 0.204,-0.393C0.184,-0.371 0.174,-0.341 0.175,-0.304L0.38,-0.304Z" style="fill-rule:nonzero;"/>
        </g>
    </g>
    <g transform="matrix(2.9446,0,0,2.9446,-1397.72,-870.41)">
        <path d="M560.596,330.462C549.474,325.141 541.561,322.59 537.515,322.59C517.748,322.59 501.666,337.396 501.666,355.595C501.666,373.793 517.748,388.599 537.515,388.599C545.679,388.599 569.581,378.225 603.884,355.595C601.888,354.277 599.929,353.006 598.005,351.771C595.898,352.973 593.729,354.23 591.442,355.595C561.332,374.607 542.577,381.851 537.515,381.851C521.469,381.851 508.415,370.072 508.415,355.595C508.415,341.117 521.469,329.338 537.515,329.338C539.908,329.338 545.361,330.959 553.622,334.67C555.837,333.349 558.158,331.944 560.596,330.462ZM537.515,309.092C510.305,309.092 488.168,329.953 488.168,355.595C488.168,381.236 510.305,402.096 537.515,402.096C554.716,402.096 593.937,379.544 627.797,355.595C622.472,351.827 617.015,348.096 611.531,344.479C609.398,345.554 607.116,346.746 604.685,348.058C608.392,350.467 612.158,352.979 615.981,355.595C580.904,379.597 549.978,395.348 537.515,395.348C514.026,395.348 494.917,377.515 494.917,355.595C494.917,333.674 514.026,315.842 537.515,315.842C543.622,315.842 554.168,319.629 567.454,326.309C569.679,324.969 571.951,323.616 574.293,322.248C558.998,314.253 545.738,309.092 537.515,309.092ZM625.994,337.963C640.543,347.869 650.64,355.595 650.64,355.595C650.64,355.595 572.222,415.594 537.515,415.594C502.807,415.594 474.671,388.73 474.671,355.595C474.671,322.459 502.807,295.595 537.515,295.595C550.483,295.595 569.554,303.973 588.355,314.465C585.953,315.715 583.585,316.993 581.251,318.291C564.316,309.121 548.149,302.343 537.515,302.343C506.584,302.343 481.42,326.232 481.42,355.595C481.42,384.957 506.584,408.846 537.515,408.846C561.539,408.846 613.796,374.278 639.357,355.595C633.586,351.377 626.446,346.346 618.586,341.089C621.473,339.771 623.953,338.736 625.994,337.963Z" style="fill-rule:nonzero;"/>
        <path d="M681.833,355.595C681.833,329.953 659.696,309.092 632.484,309.092C615.283,309.092 576.062,331.645 542.202,355.595C549.646,360.86 557.349,366.04 565.02,370.945C567.171,369.82 569.434,368.602 571.812,367.28C566.05,363.653 560.105,359.76 554.019,355.595C589.094,331.592 620.021,315.842 632.484,315.842C655.974,315.842 675.084,333.674 675.084,355.595C675.084,377.515 655.974,395.348 632.484,395.348C628.095,395.348 621.406,393.387 613.061,389.806C610.801,391.234 608.497,392.668 606.158,394.096C616.978,399.08 626.205,402.096 632.484,402.096C659.696,402.096 681.833,381.236 681.833,355.595ZM661.586,355.595C661.586,370.072 648.531,381.851 632.484,381.851C631.348,381.851 629.511,381.48 627.017,380.697C624.766,382.213 622.414,383.771 619.994,385.35C625.648,387.532 629.874,388.599 632.484,388.599C652.251,388.599 668.335,373.793 668.335,355.595C668.335,337.396 652.251,322.59 632.484,322.59C624.319,322.59 600.416,332.965 566.116,355.595C570.399,358.42 574.509,361.043 578.456,363.489C580.562,362.26 582.746,360.956 584.997,359.585C582.91,358.315 580.768,356.991 578.556,355.595C608.666,336.58 627.423,329.338 632.484,329.338C648.531,329.338 661.586,341.117 661.586,355.595ZM695.329,355.595C695.329,388.73 667.192,415.594 632.484,415.594C621.926,415.594 607.318,410.035 592.107,402.309C594.478,400.987 596.837,399.639 599.177,398.27C612.17,404.59 624.064,408.846 632.484,408.846C663.416,408.846 688.581,384.957 688.581,355.595C688.581,326.232 663.416,302.343 632.484,302.343C608.46,302.343 556.205,336.91 530.642,355.595C537.995,360.969 547.561,367.658 558.024,374.46C555.371,375.737 552.948,376.835 550.762,377.762C532.678,365.783 519.359,355.595 519.359,355.595C519.359,355.595 597.778,295.595 632.484,295.595C667.192,295.595 695.329,322.459 695.329,355.595Z" style="fill:rgb(239,39,154);fill-rule:nonzero;"/>
    </g>
</svg>
